# xmcd
#
# Track frame offsets: 
#        150
#        13241
#        23893
#        38865
#        51447
#        64151
#        78144
#        89623
#        103248
#        117041
#        129316
#        140237
#
# Disc length: 2061 seconds
#
# Revision: 0
# Processed by: cddbd v1.5.2PL0 Copyright (c) Steve Scherf et al.
# Submitted via: ExactAudioCopy v0.99pb5
#
DISCID=a7080b0c
DTITLE=FABIO e RAFAEL - DÁ MORAL PRA MIM
DYEAR=2011
DGENRE=SERTANEJO
TTITLE0=100% APAIXONADO
TTITLE1=E EU TÔ CARENTE
TTITLE2=ECLIPSE
TTITLE3=DÁ MORAL PRA MIM
TTITLE4=VIVO EM TORNO DE VOCÊ
TTITLE5=DOCE FOGO
TTITLE6=DEIXA EU VOLTAR
TTITLE7=ADEUS NOSSO AMOR
TTITLE8=SIMPLESMENTE VOCÊ
TTITLE9=TE PROMETI AMOR
TTITLE10=TÔ PEDINDO SOCORRO
TTITLE11=VEM CORRENDO ME AMAR
EXTD=
EXTT0=
EXTT1=
EXTT2=
EXTT3=
EXTT4=
EXTT5=
EXTT6=
EXTT7=
EXTT8=
EXTT9=
EXTT10=
EXTT11=
PLAYORDER=
